<svg width="20" height="20" viewBox="0 0 20 20" fill="none" xmlns="http://www.w3.org/2000/svg">
<path d="M16.0938 18.5938H3.90625C1.7523 18.5938 0 16.8414 0 14.6875V5.3125C0 3.15859 1.7523 1.40625 3.90625 1.40625H7.03125C8.91762 1.40625 10.496 2.75047 10.859 4.53125H16.0938C18.2477 4.53125 20 6.28359 20 8.4375V14.6875C20 16.8414 18.2477 18.5938 16.0938 18.5938ZM3.90625 2.96875C2.61391 2.96875 1.5625 4.02016 1.5625 5.3125V14.6875C1.5625 15.9798 2.61391 17.0312 3.90625 17.0312H16.0938C17.3861 17.0312 18.4375 15.9798 18.4375 14.6875V8.4375C18.4375 7.14516 17.3861 6.09375 16.0938 6.09375H10.1562C9.72477 6.09375 9.375 5.74398 9.375 5.3125C9.375 4.02016 8.32359 2.96875 7.03125 2.96875H3.90625Z" fill="#041E42"/>
<path d="M7.03125 6.09375H3.90625C3.47477 6.09375 3.125 5.74398 3.125 5.3125C3.125 4.88102 3.47477 4.53125 3.90625 4.53125H7.03125C7.46273 4.53125 7.8125 4.88102 7.8125 5.3125C7.8125 5.74398 7.46273 6.09375 7.03125 6.09375Z" fill="#041E42"/>
</svg>
