<svg width="20" height="20" viewBox="0 0 20 20" fill="none" xmlns="http://www.w3.org/2000/svg">
<g clip-path="url(#clip0_1_4013)">
<path d="M1.96869 19.961C1.53805 19.961 1.18896 19.6119 1.18896 19.1813C1.18896 15.2688 4.37201 12.0858 8.28448 12.0858H9.45407C10.3131 12.0858 11.153 12.2378 11.9507 12.5377C12.3538 12.6892 12.5577 13.1388 12.4062 13.5419C12.2547 13.945 11.8051 14.149 11.4019 13.9974C10.7803 13.7637 10.1249 13.6452 9.45407 13.6452H8.28448C5.23189 13.6452 2.74842 16.1287 2.74842 19.1813C2.74842 19.6119 2.39934 19.961 1.96869 19.961ZM14.0545 5.26316C14.0545 2.36105 11.6934 0 8.7913 0C5.8892 0 3.52815 2.36105 3.52815 5.26316C3.52815 8.16526 5.8892 10.5263 8.7913 10.5263C11.6934 10.5263 14.0545 8.16526 14.0545 5.26316ZM12.495 5.26316C12.495 7.30538 10.8335 8.96686 8.7913 8.96686C6.74908 8.96686 5.0876 7.30538 5.0876 5.26316C5.0876 3.22094 6.74908 1.55945 8.7913 1.55945C10.8335 1.55945 12.495 3.22094 12.495 5.26316ZM18.8108 17.6218V15.5625C18.8108 14.2473 17.7409 13.1774 16.4258 13.1774H14.3664C13.9357 13.1774 13.5866 13.5265 13.5866 13.9571C13.5866 14.3878 13.9357 14.7368 14.3664 14.7368H16.4258C16.881 14.7368 17.2513 15.1072 17.2513 15.5625V17.6218C17.2513 18.0525 17.6004 18.4016 18.0311 18.4016C18.4617 18.4016 18.8108 18.0525 18.8108 17.6218ZM16.0995 17.1463C16.3969 16.8349 16.3855 16.3413 16.0741 16.0439C15.7626 15.7466 15.2691 15.7579 14.9717 16.0693C13.5326 17.5763 11.5122 18.4405 9.42854 18.4405H9.06421C8.63357 18.4405 8.28448 18.7896 8.28448 19.2203C8.28448 19.6509 8.63357 20 9.06421 20H9.42854C11.9362 20 14.3676 18.9598 16.0995 17.1463Z" fill="#041E42"/>
</g>
<defs>
<clipPath id="clip0_1_4013">
<rect width="20" height="20" fill="white"/>
</clipPath>
</defs>
</svg>
