<svg width="20" height="20" viewBox="0 0 20 20" fill="none" xmlns="http://www.w3.org/2000/svg">
<g clip-path="url(#clip0_1_4021)">
<path d="M10.5859 20H15.3125C17.8972 20 20 17.8972 20 15.3125V4.6875C20 2.10281 17.8972 0 15.3125 0H10.5859C8.00125 0 5.89844 2.10281 5.89844 4.6875V5.46875C5.89844 5.90023 6.2482 6.25 6.67969 6.25C7.11117 6.25 7.46094 5.90023 7.46094 5.46875V4.6875C7.46094 2.96438 8.86281 1.5625 10.5859 1.5625H15.3125C17.0356 1.5625 18.4375 2.96438 18.4375 4.6875V15.3125C18.4375 17.0356 17.0356 18.4375 15.3125 18.4375H10.5859C8.86281 18.4375 7.46094 17.0356 7.46094 15.3125V14.5312C7.46094 14.0998 7.11117 13.75 6.67969 13.75C6.2482 13.75 5.89844 14.0998 5.89844 14.5312V15.3125C5.89844 17.8972 8.00125 20 10.5859 20Z" fill="#041E42"/>
<path d="M3.04688 13.75C3.24719 13.75 3.44742 13.6734 3.60004 13.5204C3.90473 13.2149 3.90406 12.7202 3.59855 12.4155L1.79039 10.6122C1.6434 10.4657 1.5625 10.2711 1.5625 10.0644C1.5625 9.85832 1.64285 9.66441 1.78875 9.51812L3.5943 7.74488C3.90215 7.44254 3.9066 6.94793 3.6043 6.64008C3.30199 6.33226 2.8073 6.32777 2.49949 6.63008L0.691328 8.4059C0.689921 8.40726 0.688555 8.40863 0.687149 8.41004C0.244062 8.8518 3.91006e-05 9.43933 3.91006e-05 10.0644C7.82013e-05 10.6894 0.244063 11.2769 0.687188 11.7187L2.49523 13.5219C2.64766 13.6739 2.8473 13.75 3.04688 13.75ZM3.08594 9.99996C3.08594 9.56847 3.4357 9.21871 3.86719 9.21871H12.3047C12.7362 9.21871 13.0859 9.56847 13.0859 9.99996C13.0859 10.4314 12.7362 10.7812 12.3047 10.7812H3.86719C3.4357 10.7812 3.08594 10.4314 3.08594 9.99996Z" fill="#041E42"/>
</g>
<defs>
<clipPath id="clip0_1_4021">
<rect width="20" height="20" fill="white" transform="matrix(-1 0 0 1 20 0)"/>
</clipPath>
</defs>
</svg>
