<svg width="20" height="20" viewBox="0 0 20 20" fill="none" xmlns="http://www.w3.org/2000/svg">
<g clip-path="url(#clip0_1_4011)">
<path d="M20 4.6875V8.4375C19.9587 9.47406 18.4784 9.47328 18.4375 8.4375V4.6875C18.4375 2.96438 17.0356 1.5625 15.3125 1.5625H4.6875C2.96438 1.5625 1.5625 2.96438 1.5625 4.6875V15.3125C1.5625 17.0356 2.96438 18.4375 4.6875 18.4375H8.59375C9.63031 18.4788 9.62953 19.9591 8.59375 20H4.6875C2.10281 20 0 17.8972 0 15.3125V4.6875C0 2.10281 2.10281 0 4.6875 0H15.3125C17.8972 0 20 2.10281 20 4.6875ZM12.7734 4.29688C12.7734 3.86539 12.4237 3.51562 11.9922 3.51562H8.00781C6.97125 3.55687 6.97203 5.03723 8.00781 5.07812H11.9922C12.4237 5.07812 12.7734 4.72836 12.7734 4.29688ZM19.2188 15.515C18.8129 15.3687 18.3652 15.5793 18.2189 15.9851C16.748 19.8566 11.0863 18.8748 11.0156 14.7265C10.9801 12.0763 13.8687 10.1896 16.2751 11.3739C16.6671 11.5541 17.131 11.3825 17.3113 10.9905C17.4916 10.5985 17.32 10.1346 16.928 9.9543C13.5134 8.2866 9.39981 10.9572 9.45316 14.7266C9.55375 20.6214 17.5993 22.0168 19.6888 16.5149C19.8351 16.109 19.6246 15.6614 19.2188 15.515ZM16.7249 15.7368L19.7738 12.6592C20.0774 12.3527 20.0751 11.858 19.7686 11.5544C19.4621 11.2507 18.9674 11.253 18.6637 11.5595L15.6134 14.6386C15.4561 14.8061 15.1734 14.8064 15.0166 14.6411L13.9183 13.5166C13.6168 13.208 13.1222 13.2022 12.8135 13.5036C12.5049 13.8052 12.4991 14.2998 12.8005 14.6084L13.9012 15.7352C14.2779 16.1176 14.7796 16.3282 15.3139 16.3282C15.8482 16.3282 16.3498 16.1175 16.7249 15.7368Z" fill="#041E42"/>
</g>
<defs>
<clipPath id="clip0_1_4011">
<rect width="20" height="20" fill="white"/>
</clipPath>
</defs>
</svg>
