<svg width="20" height="20" viewBox="0 0 20 20" fill="none" xmlns="http://www.w3.org/2000/svg">
<g clip-path="url(#clip0_1_4009)">
<path d="M9.74659 19.9805H4.67836C2.09871 19.9805 0 17.8818 0 15.3022V4.69789C0 2.11824 2.09871 0.0195312 4.67836 0.0195312H15.2827C17.8623 0.0195312 19.961 2.11824 19.961 4.69789V6.53025C19.9198 7.56479 18.4424 7.56401 18.4016 6.53025V4.69789C18.4016 2.97813 17.0024 1.57899 15.2827 1.57899H4.67836C2.9586 1.57899 1.55945 2.97813 1.55945 4.69789V15.3022C1.55945 17.0219 2.9586 18.4211 4.67836 18.4211H9.74659C10.7811 18.4623 10.7804 19.9397 9.74659 19.9805ZM12.7485 4.30803C12.7485 3.87739 12.3995 3.5283 11.9688 3.5283H7.9922C6.95766 3.56947 6.95844 5.04694 7.9922 5.08776H11.9688C12.3995 5.08776 12.7485 4.73867 12.7485 4.30803ZM20 10.9747C19.8749 7.35731 12.3263 7.35949 12.2027 10.9747C12.2027 12.505 13.9152 13.7037 16.1014 13.7037C18.2875 13.7037 20 12.505 20 10.9747ZM17.8935 10.2575C18.617 10.7113 18.6169 11.238 17.8935 11.6919C16.9825 12.2888 15.2202 12.2888 14.3092 11.6919C13.5857 11.238 13.5858 10.7113 14.3092 10.2575C14.7692 9.96998 15.4225 9.80511 16.1013 9.80511C16.7802 9.80511 17.4335 9.96998 17.8935 10.2575ZM16.0624 19.9805C14.7212 19.9805 13.4512 19.5956 12.4861 18.8966C12.1373 18.6441 12.0594 18.1565 12.312 17.8078C12.5646 17.459 13.0521 17.3811 13.4009 17.6336C14.8436 18.6786 17.2812 18.6786 18.7239 17.6336C19.0727 17.381 19.5602 17.459 19.8128 17.8078C20.0654 18.1565 19.9874 18.644 19.6387 18.8966C18.6736 19.5956 17.4035 19.9805 16.0624 19.9805ZM19.6386 15.7388C19.9874 15.4862 20.0653 14.9986 19.8127 14.6499C19.5602 14.3011 19.0726 14.2231 18.7239 14.4757C17.2812 15.5207 14.8435 15.5207 13.4008 14.4757C13.0521 14.2231 12.5645 14.3011 12.312 14.6499C12.0594 14.9986 12.1373 15.4861 12.4861 15.7388C13.4511 16.4377 14.7212 16.8227 16.0624 16.8227C17.4035 16.8227 18.6736 16.4377 19.6386 15.7388Z" fill="#041E42"/>
</g>
<defs>
<clipPath id="clip0_1_4009">
<rect width="20" height="20" fill="white"/>
</clipPath>
</defs>
</svg>
