<svg width="20" height="20" viewBox="0 0 20 20" fill="none" xmlns="http://www.w3.org/2000/svg">
<g clip-path="url(#clip0_1_4019)">
<path d="M9.99796 20C8.70483 20 7.65279 18.948 7.65279 17.6549V17.6353C7.65279 17.3569 7.48397 17.1108 7.22268 17.0082C6.50709 16.7272 5.84005 16.3388 5.23992 15.8537C5.01885 15.675 4.71956 15.6482 4.4775 15.7856C4.47672 15.7861 4.47371 15.7878 4.47293 15.7882C3.34674 16.4229 1.91177 16.0258 1.27431 14.9031C0.965221 14.3588 0.887088 13.7269 1.05434 13.124C1.22194 12.5198 1.61554 12.0174 2.16267 11.7091L2.1724 11.7036C2.40996 11.5686 2.54473 11.3007 2.50784 11.0369C2.40836 10.3272 2.41051 9.59514 2.51444 8.88612C2.55368 8.61787 2.41645 8.34477 2.17294 8.20649L2.16016 8.19922C1.61554 7.89235 1.22194 7.3899 1.05434 6.78578C0.887088 6.18284 0.965221 5.55101 1.27431 5.00666C1.91181 3.88395 3.34678 3.48699 4.47293 4.12151L4.51995 4.14821C4.76025 4.2847 5.05918 4.25835 5.28162 4.08114C5.87018 3.61226 6.52226 3.23551 7.21979 2.96132C7.4828 2.8579 7.65275 2.6113 7.65275 2.33305C7.78165 -0.778406 12.2149 -0.77696 12.3431 2.33305V2.34876C12.3431 2.62549 12.5117 2.87158 12.7727 2.97574C13.4626 3.25103 14.1075 3.62684 14.6894 4.09271C14.9123 4.27117 15.2117 4.29826 15.4521 4.16177L15.5206 4.12284C16.6492 3.48699 18.0841 3.88403 18.7216 5.0067C19.0307 5.55101 19.1088 6.18284 18.9415 6.78578C18.7739 7.3899 18.3803 7.89235 17.8332 8.20062L17.7796 8.23107C17.5408 8.36666 17.406 8.63452 17.4441 8.89761C17.5453 9.59608 17.5478 10.317 17.4519 11.0162C17.4157 11.2806 17.5505 11.5485 17.7872 11.6829L17.8344 11.7097C18.3809 12.0181 18.7741 12.5203 18.9415 13.1239C19.5031 15.1196 17.324 16.809 15.5229 15.7882L15.4957 15.7728C15.2529 15.6349 14.952 15.6629 14.7288 15.844C14.1358 16.3253 13.4768 16.7121 12.77 16.9938C12.5107 17.0971 12.3431 17.3428 12.3431 17.6196V17.6549C12.3431 18.948 11.2911 20 9.99796 20ZM4.80845 14.1332C5.31039 14.1332 5.80944 14.3037 6.22278 14.6378C6.69865 15.0224 7.22729 15.3303 7.79412 15.5529C8.65804 15.8922 9.21623 16.7095 9.21623 17.6353V17.6549C9.25931 18.6922 10.737 18.6914 10.7797 17.6549V17.6196C10.7797 16.6989 11.3337 15.8831 12.1912 15.5414C12.7511 15.3183 13.2734 15.0116 13.7436 14.6301C14.4703 14.0403 15.461 13.9551 16.2675 14.4131L16.2925 14.4273C16.6682 14.6389 17.1488 14.5066 17.362 14.1311C17.4644 13.9507 17.4903 13.7415 17.435 13.5419C17.3793 13.3412 17.2482 13.174 17.0657 13.0712C17.0649 13.0708 17.0641 13.0704 17.0633 13.0699L17.0151 13.0425C16.2154 12.5883 15.7788 11.7097 15.9029 10.8041C15.979 10.2494 15.9771 9.6757 15.8967 9.12157C15.7672 8.22673 16.2136 7.32255 17.0075 6.87166L17.0634 6.83992C17.2482 6.73579 17.3793 6.56866 17.435 6.36791C17.4904 6.16834 17.4645 5.95911 17.3621 5.77877C17.1488 5.40323 16.6681 5.271 16.2904 5.48371L16.2242 5.52135C15.4238 5.97584 14.438 5.89415 13.7124 5.31329C13.251 4.94389 12.7399 4.64601 12.1934 4.42791C11.3346 4.08524 10.7797 3.26916 10.7797 2.34884V2.33309C10.7368 1.29613 9.25915 1.29617 9.21627 2.33309C9.21627 3.25849 8.65714 4.07625 7.79189 4.41638C7.23933 4.63358 6.72261 4.93224 6.25592 5.30399C5.53119 5.88141 4.5468 5.96142 3.74808 5.50782L3.70336 5.48246C3.32782 5.27088 2.84718 5.40319 2.63393 5.77869C2.53152 5.95907 2.50561 6.1683 2.56095 6.36787C2.61665 6.56858 2.74778 6.73575 2.93024 6.83855L2.94537 6.84711C3.74472 7.3011 4.19339 8.21153 4.06151 9.11246C3.97908 9.67492 3.97736 10.2573 4.05631 10.8202C4.18319 11.7271 3.74687 12.6074 2.94466 13.063L2.93262 13.0698C2.74782 13.174 2.61669 13.3411 2.56099 13.5419C2.50561 13.7414 2.53152 13.9507 2.63393 14.131C2.8471 14.5065 3.32778 14.6388 3.70555 14.4261C4.05115 14.2298 4.4306 14.1332 4.80845 14.1332ZM9.99796 14.098C7.73498 14.098 5.89391 12.2569 5.89391 9.99398C6.11936 4.54939 13.8774 4.55099 14.102 9.99401C14.102 12.2569 12.2609 14.098 9.99796 14.098ZM9.99796 7.45338C8.59707 7.45338 7.45736 8.59309 7.45736 9.99398C7.59693 13.3644 12.3995 13.3634 12.5386 9.99398C12.5386 8.59305 11.3988 7.45338 9.99796 7.45338Z" fill="#041E42"/>
</g>
<defs>
<clipPath id="clip0_1_4019">
<rect width="20" height="20" fill="white"/>
</clipPath>
</defs>
</svg>
