<svg width="37" height="37" viewBox="0 0 37 37" fill="none" xmlns="http://www.w3.org/2000/svg">
<rect width="37" height="37" rx="8" fill="#F3F5F6"/>
<path d="M25.25 12.5H12.75C12.4048 12.5 12.125 12.7798 12.125 13.125C12.125 13.4702 12.4048 13.75 12.75 13.75H13.375V22.875C13.375 24.5981 14.7769 26 16.5 26H21.5C23.2231 26 24.625 24.5981 24.625 22.875V13.75H25.25C25.5952 13.75 25.875 13.4702 25.875 13.125C25.875 12.7798 25.5952 12.5 25.25 12.5ZM23.375 22.875C23.375 23.9089 22.5339 24.75 21.5 24.75H16.5C15.4661 24.75 14.625 23.9089 14.625 22.875V13.75H23.375V22.875Z" fill="#626974"/>
<path d="M20.25 11.25H17.75C17.4048 11.25 17.125 10.9702 17.125 10.625C17.125 10.2798 17.4048 10 17.75 10H20.25C20.5952 10 20.875 10.2798 20.875 10.625C20.875 10.9702 20.5952 11.25 20.25 11.25Z" fill="#626974"/>
<path d="M19 22.25C18.6548 22.25 18.375 21.9702 18.375 21.625V16.875C18.375 16.5298 18.6548 16.25 19 16.25C19.3452 16.25 19.625 16.5298 19.625 16.875V21.625C19.625 21.9702 19.3452 22.25 19 22.25Z" fill="#626974"/>
<path d="M21.5 22.25C21.1548 22.25 20.875 21.9702 20.875 21.625V16.875C20.875 16.5298 21.1548 16.25 21.5 16.25C21.8452 16.25 22.125 16.5298 22.125 16.875V21.625C22.125 21.9702 21.8452 22.25 21.5 22.25Z" fill="#626974"/>
<path d="M16.5 22.25C16.1548 22.25 15.875 21.9702 15.875 21.625V16.875C15.875 16.5298 16.1548 16.25 16.5 16.25C16.8452 16.25 17.125 16.5298 17.125 16.875V21.625C17.125 21.9702 16.8452 22.25 16.5 22.25Z" fill="#626974"/>
</svg>
