<svg width="37" height="37" viewBox="0 0 37 37" fill="none" xmlns="http://www.w3.org/2000/svg">
<rect width="37" height="37" rx="8" fill="#F3F5F6"/>
<g clip-path="url(#clip0_1_5175)">
<path d="M23.875 21.1294H21.5C21.1548 21.1294 20.875 20.8496 20.875 20.5044C20.875 20.1592 21.1548 19.8794 21.5 19.8794H23.875C24.9089 19.8794 25.75 19.0383 25.75 18.0044C25.75 16.9355 24.9977 16.1294 24 16.1294C23.6548 16.1294 23.375 15.8496 23.375 15.5044C23.375 14.4705 22.5339 13.6294 21.5 13.6294C21.2973 13.6294 21.0906 13.6684 20.8679 13.7487C20.6173 13.8391 20.3371 13.7607 20.1697 13.5535C19.567 12.8073 18.685 12.3794 17.75 12.3794C16.0269 12.3794 14.625 13.7813 14.625 15.5044C14.625 15.8496 14.3452 16.1294 14 16.1294C13.0023 16.1294 12.25 16.9355 12.25 18.0044C12.25 19.0383 13.0911 19.8794 14.125 19.8794H16.5C16.8452 19.8794 17.125 20.1592 17.125 20.5044C17.125 20.8496 16.8452 21.1294 16.5 21.1294H14.125C12.4019 21.1294 11 19.7275 11 18.0044C11 17.1698 11.2973 16.3907 11.8373 15.8107C12.2621 15.3544 12.8077 15.0538 13.4118 14.9357C13.6914 12.7911 15.5303 11.1294 17.75 11.1294C18.9248 11.1294 20.0372 11.6065 20.8609 12.4513C21.0763 12.4035 21.2901 12.3794 21.5 12.3794C23.0279 12.3794 24.3033 13.4816 24.5726 14.9328C25.1829 15.0486 25.7342 15.3505 26.1627 15.8108C26.7026 16.3907 27 17.1698 27 18.0044C27 19.7275 25.5982 21.1294 23.875 21.1294Z" fill="#626974"/>
<path d="M23.875 21.1294H21.5C21.1548 21.1294 20.875 20.8496 20.875 20.5044C20.875 20.1592 21.1548 19.8794 21.5 19.8794H23.875C24.9089 19.8794 25.75 19.0383 25.75 18.0044C25.75 16.9355 24.9977 16.1294 24 16.1294C23.6548 16.1294 23.375 15.8496 23.375 15.5044C23.375 14.4705 22.5339 13.6294 21.5 13.6294C21.2973 13.6294 21.0906 13.6684 20.8679 13.7487C20.6173 13.8391 20.3371 13.7607 20.1697 13.5535C19.567 12.8073 18.685 12.3794 17.75 12.3794C16.0269 12.3794 14.625 13.7813 14.625 15.5044C14.625 15.8496 14.3452 16.1294 14 16.1294C13.0023 16.1294 12.25 16.9355 12.25 18.0044C12.25 19.0383 13.0911 19.8794 14.125 19.8794H16.5C16.8452 19.8794 17.125 20.1592 17.125 20.5044C17.125 20.8496 16.8452 21.1294 16.5 21.1294H14.125C12.4019 21.1294 11 19.7275 11 18.0044C11 17.1698 11.2973 16.3907 11.8373 15.8107C12.2621 15.3544 12.8077 15.0538 13.4118 14.9357C13.6914 12.7911 15.5303 11.1294 17.75 11.1294C18.9248 11.1294 20.0372 11.6065 20.8609 12.4513C21.0763 12.4035 21.2901 12.3794 21.5 12.3794C23.0279 12.3794 24.3033 13.4816 24.5726 14.9328C25.1829 15.0486 25.7342 15.3505 26.1627 15.8108C26.7026 16.3907 27 17.1698 27 18.0044C27 19.7275 25.5982 21.1294 23.875 21.1294Z" fill="#626974"/>
<path d="M21.3169 17.9285L19.8839 16.4954C19.6445 16.2561 19.3315 16.1346 19.0172 16.1303C19.0114 16.1301 19.0058 16.1294 19 16.1294C18.9942 16.1294 18.9886 16.1301 18.9829 16.1303C18.6685 16.1346 18.3554 16.2561 18.1161 16.4954L16.6831 17.9285C16.439 18.1726 16.439 18.5683 16.6831 18.8123C16.9272 19.0564 17.3229 19.0564 17.5669 18.8123L18.375 18.0043V24.2454C18.375 24.5906 18.6548 24.8704 19 24.8704C19.3452 24.8704 19.625 24.5906 19.625 24.2454V18.0043L20.433 18.8123C20.6771 19.0564 21.0729 19.0564 21.3169 18.8123C21.561 18.5682 21.561 18.1725 21.3169 17.9285Z" fill="#626974"/>
</g>
<defs>
<clipPath id="clip0_1_5175">
<rect width="16" height="16" fill="white" transform="translate(11 10)"/>
</clipPath>
</defs>
</svg>
