<svg width="30" height="30" viewBox="0 0 30 30" fill="none" xmlns="http://www.w3.org/2000/svg">
<g clip-path="url(#clip0_1_3996)">
<path d="M28.2422 14.3694V10.8325C28.2422 9.09486 26.8596 7.67484 25.1367 7.61285V5.44189C25.1367 4.31109 24.2167 3.39111 23.0859 3.39111H17.44L16.7109 1.36453C16.525 0.847729 16.1487 0.43476 15.6513 0.201732C15.154 -0.0313535 14.5958 -0.0561972 14.0798 0.131654L3.83438 3.86062C3.31887 4.04824 2.9076 4.42552 2.67627 4.92298C2.44494 5.42044 2.42145 5.97808 2.61018 6.49324L3.0218 7.61677C1.33811 7.72089 0 9.12304 0 10.8325V26.77C0 28.547 1.44568 29.9927 3.22266 29.9927H25.0195C26.7965 29.9927 28.2422 28.547 28.2422 26.77V23.1159C29.2346 22.9733 30 22.1177 30 21.0864V16.3989C30 15.3676 29.2346 14.512 28.2422 14.3694ZM28.2422 21.0864C28.2422 21.248 28.1108 21.3794 27.9492 21.3794H23.2617C21.8078 21.3794 20.625 20.1966 20.625 18.7427C20.625 17.2888 21.8078 16.106 23.2617 16.106H27.9492C28.1108 16.106 28.2422 16.2374 28.2422 16.3989V21.0864ZM4.2607 5.88855C4.22432 5.78923 4.25098 5.70539 4.27014 5.66419C4.2893 5.62306 4.33623 5.54859 4.43561 5.51244L14.681 1.78347C14.7804 1.74732 14.8643 1.77421 14.9055 1.79349C14.9467 1.81277 15.021 1.85999 15.0568 1.9596L15.5719 3.39117H15.1758C14.045 3.39117 13.125 4.31115 13.125 5.44195V7.60992H4.89135L4.2607 5.88855ZM23.3789 5.44189V7.60986H14.8828V5.44189C14.8828 5.28035 15.0142 5.14892 15.1758 5.14892H23.0859C23.2475 5.14892 23.3789 5.28035 23.3789 5.44189ZM25.0195 28.2349H3.22266C2.41494 28.2349 1.75781 27.5777 1.75781 26.77V10.8325C1.75781 10.0248 2.41494 9.36767 3.22266 9.36767H25.0195C25.8272 9.36767 26.4844 10.0248 26.4844 10.8325V14.3481H23.2617C20.8386 14.3481 18.8672 16.3195 18.8672 18.7427C18.8672 21.1658 20.8386 23.1372 23.2617 23.1372H26.4844V26.77C26.4844 27.5777 25.8272 28.2349 25.0195 28.2349Z" fill="#041E42"/>
<path d="M23.2617 19.6216C23.7471 19.6216 24.1406 19.2281 24.1406 18.7427C24.1406 18.2573 23.7471 17.8638 23.2617 17.8638C22.7763 17.8638 22.3828 18.2573 22.3828 18.7427C22.3828 19.2281 22.7763 19.6216 23.2617 19.6216Z" fill="#041E42"/>
</g>
<defs>
<clipPath id="clip0_1_3996">
<rect width="30" height="30" fill="white"/>
</clipPath>
</defs>
</svg>
