<svg width="30" height="30" viewBox="0 0 30 30" fill="none" xmlns="http://www.w3.org/2000/svg">
<g clip-path="url(#clip0_1_3975)">
<path d="M15 12.1289C17.8109 12.1289 20.0977 9.84211 20.0977 7.03125C20.0977 4.22039 17.8109 1.93359 15 1.93359C12.1891 1.93359 9.90234 4.22039 9.90234 7.03125C9.90234 9.84211 12.1891 12.1289 15 12.1289ZM15 3.69141C16.8416 3.69141 18.3398 5.18965 18.3398 7.03125C18.3398 8.87285 16.8416 10.3711 15 10.3711C13.1584 10.3711 11.6602 8.87285 11.6602 7.03125C11.6602 5.18965 13.1584 3.69141 15 3.69141Z" fill="#041E42"/>
<path d="M25.3125 12.1289C27.0895 12.1289 28.5352 10.6832 28.5352 8.90625C28.5352 7.12928 27.0895 5.68359 25.3125 5.68359C23.5355 5.68359 22.0898 7.12928 22.0898 8.90625C22.0898 10.6832 23.5355 12.1289 25.3125 12.1289ZM25.3125 7.44141C26.1202 7.44141 26.7773 8.09854 26.7773 8.90625C26.7773 9.71396 26.1202 10.3711 25.3125 10.3711C24.5048 10.3711 23.8477 9.71396 23.8477 8.90625C23.8477 8.09854 24.5048 7.44141 25.3125 7.44141Z" fill="#041E42"/>
<path d="M26.0215 14.1211H24.6621C23.0602 14.1211 21.6774 15.0675 21.0473 16.4269C19.75 15.0107 17.8865 14.1211 15.8191 14.1211H14.181C12.1136 14.1211 10.2501 15.0107 8.95277 16.4269C8.3226 15.0675 6.93979 14.1211 5.33789 14.1211H3.97852C1.78477 14.1211 0 15.8951 0 18.0756V24.4746C0 25.4213 0.773086 26.1914 1.72336 26.1914H7.09799C7.18811 27.2402 8.07006 28.0664 9.14191 28.0664H20.8581C21.9299 28.0664 22.8119 27.2402 22.9021 26.1914H28.2153C29.1994 26.1914 30.0001 25.3939 30.0001 24.4137V18.0756C30 15.8951 28.2152 14.1211 26.0215 14.1211ZM1.75781 18.0756C1.75781 16.8643 2.75402 15.8789 3.97852 15.8789H5.33789C6.56238 15.8789 7.55859 16.8643 7.55859 18.0756V18.6774C6.96756 20.2163 7.08984 21.1386 7.08984 24.4336H1.75781V18.0756ZM21.1523 26.0144C21.1523 26.1766 21.0204 26.3086 20.8581 26.3086H9.14186C8.97961 26.3086 8.84766 26.1766 8.84766 26.0144V21.2122C8.84766 18.2714 11.2402 15.8789 14.1809 15.8789H15.819C18.7598 15.8789 21.1523 18.2714 21.1523 21.2122V26.0144ZM28.2422 24.4137C28.2422 24.444 28.5698 24.4336 22.9102 24.4336C22.9102 21.1142 23.0315 20.2138 22.4414 18.6774V18.0756C22.4414 16.8643 23.4376 15.8789 24.6621 15.8789H26.0215C27.246 15.8789 28.2422 16.8643 28.2422 18.0756V24.4137Z" fill="#041E42"/>
<path d="M4.6875 12.1289C6.46447 12.1289 7.91016 10.6832 7.91016 8.90625C7.91016 7.12928 6.46447 5.68359 4.6875 5.68359C2.91053 5.68359 1.46484 7.12928 1.46484 8.90625C1.46484 10.6832 2.91053 12.1289 4.6875 12.1289ZM4.6875 7.44141C5.49521 7.44141 6.15234 8.09854 6.15234 8.90625C6.15234 9.71396 5.49521 10.3711 4.6875 10.3711C3.87979 10.3711 3.22266 9.71396 3.22266 8.90625C3.22266 8.09854 3.87979 7.44141 4.6875 7.44141Z" fill="#041E42"/>
</g>
<defs>
<clipPath id="clip0_1_3975">
<rect width="30" height="30" fill="white"/>
</clipPath>
</defs>
</svg>
