<svg width="30" height="30" viewBox="0 0 30 30" fill="none" xmlns="http://www.w3.org/2000/svg">
<g clip-path="url(#clip0_1_3946)">
<path d="M9.72656 26.4844C11.1804 26.4844 12.3633 25.3015 12.3633 23.8477C12.3633 22.3938 11.1804 21.2109 9.72656 21.2109C8.27268 21.2109 7.08984 22.3938 7.08984 23.8477C7.08984 25.3015 8.27268 26.4844 9.72656 26.4844ZM9.72656 22.9688C10.2112 22.9688 10.6055 23.363 10.6055 23.8477C10.6055 24.3323 10.2112 24.7266 9.72656 24.7266C9.24193 24.7266 8.84766 24.3323 8.84766 23.8477C8.84766 23.363 9.24193 22.9688 9.72656 22.9688Z" fill="#041E42"/>
<path d="M21.3791 9.47514L24.5764 3.02719C24.7239 2.72988 24.6913 2.37486 24.4922 2.10938C24.3302 1.89346 22.8608 0 21.1523 0C20.0991 0 19.1369 0.719473 18.5156 1.32199C17.8944 0.719473 16.9321 0 15.8789 0C14.1704 0 12.701 1.89346 12.5391 2.10938C12.34 2.37486 12.3073 2.72988 12.4548 3.02719L15.6459 9.46266C13.2386 11.3685 10.6046 14.5992 8.94545 17.6953H0.878906C0.393516 17.6953 0 18.0888 0 18.5742V29.1211C0 29.6065 0.393516 30 0.878906 30H20.6286C25.6051 29.9794 30 28.8605 30 23.8477C30 19.2792 24.9773 12.4334 21.3791 9.47514ZM14.2873 2.76592C14.7234 2.30695 15.383 1.75781 15.8789 1.75781C16.479 1.75781 17.3715 2.58094 17.8125 3.16406C17.9785 3.38537 18.2389 3.51562 18.5156 3.51562C18.7923 3.51562 19.0528 3.38537 19.2188 3.16406C19.5492 2.7235 20.4947 1.75781 21.1523 1.75781C21.623 1.75781 22.2735 2.26412 22.745 2.76387L19.7282 8.84766H17.303L14.2873 2.76592ZM17.6367 28.2422H1.75781V19.4531H17.6367V28.2422ZM20.625 28.2422H19.3945V18.5742C19.3945 18.0888 19.001 17.6953 18.5156 17.6953H10.9634C12.5897 14.9471 14.977 12.1446 17.0435 10.6055H17.6367V10.7563C17.6367 12.142 17.0899 13.4837 16.1364 14.4371C15.7931 14.7803 15.7931 15.3368 16.1364 15.68C16.4796 16.0233 17.0361 16.0232 17.3793 15.68C17.8277 15.2316 18.2092 14.7202 18.5157 14.1654C18.8221 14.7202 19.2036 15.2316 19.6521 15.68C19.9952 16.0232 20.5518 16.0233 20.895 15.68C21.2382 15.3368 21.2382 14.7803 20.895 14.4371C19.9414 13.4837 19.3945 12.142 19.3945 10.7563V10.6055H19.9784C23.683 13.4676 28.2422 20.1374 28.2422 23.8477C28.2422 26.9466 26.0343 28.2197 20.625 28.2422Z" fill="#041E42"/>
<path d="M4.45312 24.7266C4.93853 24.7266 5.33203 24.3331 5.33203 23.8477C5.33203 23.3622 4.93853 22.9688 4.45312 22.9688C3.96772 22.9688 3.57422 23.3622 3.57422 23.8477C3.57422 24.3331 3.96772 24.7266 4.45312 24.7266Z" fill="#041E42"/>
<path d="M15 24.7266C15.4854 24.7266 15.8789 24.3331 15.8789 23.8477C15.8789 23.3622 15.4854 22.9688 15 22.9688C14.5146 22.9688 14.1211 23.3622 14.1211 23.8477C14.1211 24.3331 14.5146 24.7266 15 24.7266Z" fill="#041E42"/>
</g>
<defs>
<clipPath id="clip0_1_3946">
<rect width="30" height="30" fill="white"/>
</clipPath>
</defs>
</svg>
