<svg width="30" height="30" viewBox="0 0 30 30" fill="none" xmlns="http://www.w3.org/2000/svg">
<path d="M27.9446 8.27955L27.9223 8.24117C27.8916 8.17736 27.8561 8.11625 27.8165 8.05818L23.6429 0.84258C23.3422 0.322852 22.7826 0 22.1821 0H7.81861C7.21727 0 6.65711 0.323614 6.35658 0.844748L2.11497 8.20332C2.07677 8.26964 2.04923 8.33902 2.02978 8.40951C1.97007 8.5707 1.93726 8.7449 1.93726 8.92666V27.9325C1.93726 29.0725 2.86474 29.9999 4.00474 29.9999H25.9953C27.1353 29.9999 28.0627 29.0725 28.0627 27.9325V8.85699C28.0627 8.8315 28.062 8.80619 28.0606 8.78099C28.0726 8.61183 28.0359 8.4374 27.9446 8.27955ZM15.9093 1.75846H22.1412L25.4244 7.43462H15.9093V1.75846ZM7.85957 1.75846H14.1509V7.43462H4.58769L7.85957 1.75846ZM26.3043 27.9325C26.3043 28.1029 26.1656 28.2415 25.9953 28.2415H4.00474C3.83435 28.2415 3.69572 28.1029 3.69572 27.9325V9.19308H26.3043V27.9325Z" fill="#041E42"/>
<path d="M18.9912 15.8219C18.6479 15.4786 18.0911 15.4786 17.7477 15.8219L13.8218 19.7478L12.3122 18.2382C11.9689 17.8949 11.4122 17.8949 11.0688 18.2382C10.7254 18.5815 10.7254 19.1383 11.0688 19.4816L13.2002 21.6129C13.3719 21.7846 13.5969 21.8705 13.8219 21.8705C14.0468 21.8705 14.272 21.7846 14.4436 21.6129L18.9912 17.0654C19.3345 16.722 19.3345 16.1653 18.9912 15.8219Z" fill="#041E42"/>
</svg>
